<?xml version="1.0" encoding="UTF-8"?>
<svg version="1.1" xmlns="http://www.w3.org/2000/svg" width="612" height="408">
<path d="M0 0 C8.39070253 8.52922828 13.11868281 17.54390419 13.75390625 29.59765625 C13.49357914 37.82399279 11.24614434 46.41110505 5.65625 52.68359375 C4.99625 52.68359375 4.33625 52.68359375 3.65625 52.68359375 C2.80460631 54.35311262 2.80460631 54.35311262 2.65625 56.68359375 C4.11421924 59.91857343 4.11421924 59.91857343 6.15625 63.24609375 C8.1875 66.6875 8.1875 66.6875 9.65625 69.68359375 C9.16125 71.16859375 9.16125 71.16859375 8.65625 72.68359375 C0.93358244 73.00939379 -6.06010316 72.73089339 -13.59375 71.12109375 C-19.8079204 69.80976518 -25.09685487 69.54202916 -31.34375 70.68359375 C-51.3838194 74.02767354 -71.71948445 71.841808 -89.11328125 60.94921875 C-97.90258457 54.42087761 -103.43464503 47.49356862 -106.03125 36.87109375 C-107.1503633 25.4561381 -106.18950153 14.619132 -99.40625 4.93359375 C-89.61291632 -6.42583806 -74.97604509 -13.06329178 -60.34375 -15.31640625 C-59.56386719 -15.43886719 -58.78398437 -15.56132812 -57.98046875 -15.6875 C-37.22587143 -18.23852031 -15.85886973 -14.40015294 0 0 Z M-84.34375 2.68359375 C-85.47683594 3.47056641 -85.47683594 3.47056641 -86.6328125 4.2734375 C-87.19742188 4.73878906 -87.76203125 5.20414063 -88.34375 5.68359375 C-88.34375 6.34359375 -88.34375 7.00359375 -88.34375 7.68359375 C-89.00375 7.68359375 -89.66375 7.68359375 -90.34375 7.68359375 C-90.34375 8.67359375 -90.34375 9.66359375 -90.34375 10.68359375 C-91.00375 10.68359375 -91.66375 10.68359375 -92.34375 10.68359375 C-92.983125 11.75609375 -93.6225 12.82859375 -94.28125 13.93359375 C-94.64089844 14.536875 -95.00054687 15.14015625 -95.37109375 15.76171875 C-98.47609143 21.89689488 -98.4019596 30.31069821 -96.8125 36.87890625 C-92.29226434 47.83556442 -83.11398692 54.76338873 -72.59375 59.62109375 C-65.3665933 62.37158646 -58.00060564 63.10873076 -50.34375 63.68359375 C-49.44785156 63.75578125 -48.55195313 63.82796875 -47.62890625 63.90234375 C-42.48154608 64.10789557 -37.92649874 63.19496796 -32.90625 62.05859375 C-27.04420304 60.7965434 -22.72785421 60.65604137 -16.9296875 62.06640625 C-12.78774702 63.05496606 -8.57981858 63.33441673 -4.34375 63.68359375 C-4.8078125 62.66265625 -4.8078125 62.66265625 -5.28125 61.62109375 C-6.56035371 58.08474819 -7.34375 55.47275823 -7.34375 51.68359375 C-6.06047366 49.73883476 -4.57796072 48.16305966 -2.98046875 46.46875 C2.89522424 40.06017793 3.22559466 33.70383243 2.98046875 25.18359375 C2.58032982 20.8640217 1.86591863 18.39268038 -0.34375 14.68359375 C-0.68019531 14.10867187 -1.01664062 13.53375 -1.36328125 12.94140625 C-2.48672843 11.05467824 -2.48672843 11.05467824 -4.34375 8.68359375 C-5.00375 8.68359375 -5.66375 8.68359375 -6.34375 8.68359375 C-6.6325 8.06484375 -6.92125 7.44609375 -7.21875 6.80859375 C-8.28095042 4.5503361 -8.28095042 4.5503361 -10.34375 2.68359375 C-11.33375 2.68359375 -12.32375 2.68359375 -13.34375 2.68359375 C-13.34375 2.02359375 -13.34375 1.36359375 -13.34375 0.68359375 C-34.74834102 -11.63301449 -64.20864958 -12.98107824 -84.34375 2.68359375 Z " fill="#4090D8" transform="translate(211.34375,158.31640625)"/>
<path d="M0 0 C4.84476699 2.02467874 6.73926632 5.41054064 9 10 C9.8125 13.5 9.8125 13.5 10 16 C10.66 16 11.32 16 12 16 C12.3403125 14.824375 12.3403125 14.824375 12.6875 13.625 C14 11 14 11 16.3125 9.625 C19.27149356 8.93686196 21.10351441 9.17243269 24 10 C25.32630565 14.14470514 25.98384711 19.03230578 24 23 C24.825 22.67 25.65 22.34 26.5 22 C30.5873983 20.83217191 33.76923344 20.8541115 38 21 C39.01725637 24.14424697 39.09804443 25.71812227 38 28.875 C34.42416803 34.46223745 30.45402827 38.9742831 24 41 C21.86397564 41.3074378 19.71498694 41.53284546 17.5625 41.6875 C16.47066406 41.77386719 15.37882812 41.86023438 14.25390625 41.94921875 C11.02325538 41.99963707 8.16684758 41.59828228 5 41 C4.154375 41 3.30875 41 2.4375 41 C0 41 0 41 -2.5625 40.375 C-4.98290356 39.75413766 -4.98290356 39.75413766 -6.85546875 40.984375 C-11.31560989 43.09664585 -16.62273794 41.74422336 -21.18359375 40.31640625 C-27.18215095 37.68546011 -32.29670156 33.01978432 -34.87890625 26.92578125 C-35.4375 25 -35.4375 25 -36 22 C-33.32356043 21.10785348 -31.74615622 20.86459789 -29 20.875 C-28.319375 20.87242187 -27.63875 20.86984375 -26.9375 20.8671875 C-25 21 -25 21 -22 22 C-21.67 18.04 -21.34 14.08 -21 10 C-16 9 -16 9 -12.8125 10.8125 C-10 13 -10 13 -8 15 C-7.63648438 14.00419922 -7.63648438 14.00419922 -7.265625 12.98828125 C-5.38846341 8.04268244 -3.66677907 3.92869187 0 0 Z M-21 23 C-20 25 -20 25 -20 25 Z " fill="#EAAC4D" transform="translate(163,159)"/>
<path d="M0 0 C4.44933719 4.33100375 5.97620865 7.14978524 6.46875 13.4296875 C5.80875 13.7596875 5.14875 14.0896875 4.46875 14.4296875 C4.07945312 13.64464844 3.69015625 12.85960937 3.2890625 12.05078125 C-0.85626191 4.26635868 -4.86025593 -0.26257709 -12.53125 -4.5703125 C-13.34851563 -5.05242187 -14.16578125 -5.53453125 -15.0078125 -6.03125 C-20.99154549 -9.31755415 -26.78549647 -10.71106253 -33.53125 -11.5703125 C-33.53125 -10.9103125 -33.53125 -10.2503125 -33.53125 -9.5703125 C-35.51125 -9.5703125 -37.49125 -9.5703125 -39.53125 -9.5703125 C-39.86125 -8.9103125 -40.19125 -8.2503125 -40.53125 -7.5703125 C-41.84222656 -7.63992187 -41.84222656 -7.63992187 -43.1796875 -7.7109375 C-58.58004317 -8.16293955 -71.91407546 -5.81683392 -84.53125 3.4296875 C-85.84894196 4.12676004 -87.17756321 4.80538446 -88.53125 5.4296875 C-88.53125 6.0896875 -88.53125 6.7496875 -88.53125 7.4296875 C-89.19125 7.4296875 -89.85125 7.4296875 -90.53125 7.4296875 C-90.53125 8.4196875 -90.53125 9.4096875 -90.53125 10.4296875 C-91.19125 10.4296875 -91.85125 10.4296875 -92.53125 10.4296875 C-96.02008616 18.90257532 -98.50527817 27.41233575 -95.92578125 36.58203125 C-95.19069602 38.22757737 -94.36273158 39.83068446 -93.53125 41.4296875 C-92.69867195 43.75994904 -92.10012074 46.01198688 -91.53125 48.4296875 C-92.02625 49.4196875 -92.02625 49.4196875 -92.53125 50.4296875 C-91.87125 50.4296875 -91.21125 50.4296875 -90.53125 50.4296875 C-90.53125 51.0896875 -90.53125 51.7496875 -90.53125 52.4296875 C-94.53125 52.4296875 -94.53125 52.4296875 -96.28125 51.0546875 C-97.53125 49.4296875 -97.53125 49.4296875 -97.53125 47.4296875 C-98.294375 47.2234375 -99.0575 47.0171875 -99.84375 46.8046875 C-103.44779303 44.96075851 -104.09521784 43.16337112 -105.53125 39.4296875 C-108.35498269 28.3914597 -106.5891096 16.8729614 -101.1640625 6.921875 C-92.53562448 -5.39833252 -77.14259232 -12.50532882 -62.73828125 -15.23046875 C-61.64580078 -15.39869141 -61.64580078 -15.39869141 -60.53125 -15.5703125 C-59.75136719 -15.69277344 -58.97148437 -15.81523437 -58.16796875 -15.94140625 C-37.18605872 -18.52036636 -15.98043653 -14.54822759 0 0 Z " fill="#388CDC" transform="translate(211.53125,158.5703125)"/>
<path d="M0 0 C1.32630565 4.14470514 1.98384711 9.03230578 0 13 C0.825 12.67 1.65 12.34 2.5 12 C6.5873983 10.83217191 9.76923344 10.8541115 14 11 C15.01725637 14.14424697 15.09804443 15.71812227 14 18.875 C10.42416803 24.46223745 6.45402827 28.9742831 0 31 C-2.13602436 31.3074378 -4.28501306 31.53284546 -6.4375 31.6875 C-7.52933594 31.77386719 -8.62117188 31.86023438 -9.74609375 31.94921875 C-12.978094 31.99965813 -15.83180807 31.59878381 -19 31 C-20.66627298 30.96377667 -22.33405374 30.95100158 -24 31 C-24.4640625 29.824375 -24.4640625 29.824375 -24.9375 28.625 C-25.92875038 26.07669872 -25.92875038 26.07669872 -27 24 C-25.20963542 23.0234375 -23.41927083 22.046875 -21.62890625 21.0703125 C-19.83381685 20.08589976 -19.83381685 20.08589976 -19 18 C-18.01 18.33 -17.02 18.66 -16 19 C-16 20.32 -16 21.64 -16 23 C-12.07174482 19.07174482 -12.60276748 11.85500362 -12.34375 6.70703125 C-12 4 -12 4 -10 1 C-6.29341391 -1.00356005 -4.03098931 -1.15171123 0 0 Z " fill="#E7963B" transform="translate(187,169)"/>
<path d="M0 0 C0.99 0.495 0.99 0.495 2 1 C4.72757013 10.63741445 4.84128474 20.85966799 0.59375 30.0390625 C-0.82226499 32.50320623 -2.18375161 34.81359229 -4 37 C-4.66 37 -5.32 37 -6 37 C-6.85164369 38.66951887 -6.85164369 38.66951887 -7 41 C-5.54203076 44.23497968 -5.54203076 44.23497968 -3.5 47.5625 C-1.46875 51.00390625 -1.46875 51.00390625 0 54 C-0.33 54.99 -0.66 55.98 -1 57 C-8.72266756 57.32580004 -15.71635316 57.04729964 -23.25 55.4375 C-29.4641704 54.12617143 -34.75310487 53.85843541 -41 55 C-61.21041845 58.37250588 -82.94057155 56.40692611 -99.9765625 44.26953125 C-100.97429687 43.52058594 -101.97203125 42.77164063 -103 42 C-102.01 41.505 -102.01 41.505 -101 41 C-99.88625 41.598125 -98.7725 42.19625 -97.625 42.8125 C-92.36283737 45.61833949 -86.8552992 46.25832877 -81 47 C-81 47.99 -81 48.98 -81 50 C-79.68 50.33 -78.36 50.66 -77 51 C-77 51.66 -77 52.32 -77 53 C-72.24927084 52.88141289 -67.49873642 52.75714252 -62.74829102 52.62768555 C-61.13342289 52.58446917 -59.51851298 52.54278511 -57.90356445 52.50268555 C-55.57750883 52.44465952 -53.25166096 52.38105971 -50.92578125 52.31640625 C-50.20787918 52.29969376 -49.48997711 52.28298126 -48.75032043 52.26576233 C-45.05615004 52.15746008 -41.6017065 51.82397337 -38 51 C-36.52363598 50.88959365 -35.0429277 50.82569454 -33.5625 50.8125 C-32.84191406 50.79832031 -32.12132812 50.78414062 -31.37890625 50.76953125 C-29 51 -29 51 -26.26953125 52.00390625 C-22.1211731 53.26774296 -18.4257156 53.21901835 -14.125 53.125 C-11.44375 53.08375 -8.7625 53.0425 -6 53 C-8.31 48.05 -10.62 43.1 -13 38 C-11 36 -11 36 -8.5625 35.25 C-4.87904637 33.45319335 -4.39645354 31.85687168 -3 28 C-1.47360271 21.37925177 -0.83201478 14.98505577 -0.99609375 8.203125 C-1.00107339 5.39460701 -0.57757605 2.74348626 0 0 Z " fill="#7A9CC2" transform="translate(221,174)"/>
<path d="M0 0 C12.40209604 -0.91867378 21.41002813 5.63606941 30.6875 13.1875 C34.9368541 18.35563337 39.63440207 24.40128302 40.32421875 31.19140625 C40 34 40 34 38 37 C37.60612212 39.32387947 37.26513915 41.65793749 37 44 C36.67 44 36.34 44 36 44 C35.94392578 42.93072266 35.94392578 42.93072266 35.88671875 41.83984375 C35.33675809 33.82767174 33.99942177 28.42782799 29 22 C29 21.34 29 20.68 29 20 C28.34 20 27.68 20 27 20 C26.360625 19.195625 25.72125 18.39125 25.0625 17.5625 C23.18964068 14.76279268 23.18964068 14.76279268 20 14 C20 13.34 20 12.68 20 12 C19.319375 11.731875 18.63875 11.46375 17.9375 11.1875 C15.94892035 10.3836061 13.98910566 9.50530702 12.0625 8.5625 C6.36108427 6.06813062 0.07478385 5.18799518 -6 4 C-6 3.34 -6 2.68 -6 2 C-4.02 2 -2.04 2 0 2 C0 1.34 0 0.68 0 0 Z " fill="#4BA1E4" transform="translate(178,147)"/>
<path d="M0 0 C4.44933719 4.33100375 5.97620865 7.14978524 6.46875 13.4296875 C5.80875 13.7596875 5.14875 14.0896875 4.46875 14.4296875 C4.07945312 13.64464844 3.69015625 12.85960937 3.2890625 12.05078125 C-0.86289487 4.25390278 -4.86576767 -0.23815355 -12.53125 -4.5703125 C-13.27890625 -5.04082031 -14.0265625 -5.51132813 -14.796875 -5.99609375 C-25.55619992 -12.19917393 -38.39056497 -12.81718718 -50.53125 -12.8828125 C-51.39081299 -12.88837158 -52.25037598 -12.89393066 -53.13598633 -12.8996582 C-66.748695 -12.74537293 -81.00624085 -7.8972951 -90.90625 1.7421875 C-91.4425 2.2990625 -91.97875 2.8559375 -92.53125 3.4296875 C-93.19125 3.4296875 -93.85125 3.4296875 -94.53125 3.4296875 C-93.98760208 -0.33466247 -92.6294236 -1.71709334 -89.65625 -4.0078125 C-64.32821658 -22.66426614 -23.3421645 -21.25017806 0 0 Z " fill="#3376C0" transform="translate(211.53125,158.5703125)"/>
<path d="M0 0 C3.31438592 0.22598086 5.80054659 0.90692174 8.8125 2.3125 C12.32419133 6.62686364 11.90646181 11.59179187 12 17 C11.34 17 10.68 17 10 17 C9.67 15.68 9.34 14.36 9 13 C8.01 13.495 8.01 13.495 7 14 C7 13.01 7 12.02 7 11 C5.68 11 4.36 11 3 11 C2.39562101 16.80203831 3.59255821 19.59515482 7.00390625 24.30078125 C7.33261719 24.86152344 7.66132813 25.42226562 8 26 C7.67 26.66 7.34 27.32 7 28 C6.59007812 27.50628906 6.18015625 27.01257813 5.7578125 26.50390625 C5.21898437 25.86324219 4.68015625 25.22257812 4.125 24.5625 C3.59132812 23.92441406 3.05765625 23.28632813 2.5078125 22.62890625 C1.0777243 20.89194996 1.0777243 20.89194996 -1 20 C-1 19.01 -1 18.02 -1 17 C-3.31 17 -5.62 17 -8 17 C-8.16687448 19.41645782 -8.16687448 19.41645782 -8 22 C-7.34 22.66 -6.68 23.32 -6 24 C-6 24.99 -6 25.98 -6 27 C-4.68 27.66 -3.36 28.32 -2 29 C-6.30683041 29 -8.00602352 26.95415537 -11.125 24.15625 C-14.01706085 20.83038003 -15.07484632 17.24992472 -16 13 C-13.32356043 12.10785348 -11.74615622 11.86459789 -9 11.875 C-8.319375 11.87242187 -7.63875 11.86984375 -6.9375 11.8671875 C-5 12 -5 12 -2 13 C-1.93941406 12.14535156 -1.87882813 11.29070312 -1.81640625 10.41015625 C-1.73261719 9.30542969 -1.64882812 8.20070312 -1.5625 7.0625 C-1.48128906 5.96035156 -1.40007812 4.85820312 -1.31640625 3.72265625 C-1 1 -1 1 0 0 Z M-1 14 C0 16 0 16 0 16 Z " fill="#E8B654" transform="translate(143,168)"/>
<path d="M0 0 C0 0.66 0 1.32 0 2 C-2.68574382 2.81871381 -5.3733572 3.63008988 -8.0625 4.4375 C-9.19075195 4.78264648 -9.19075195 4.78264648 -10.34179688 5.13476562 C-17.57041224 7.29396242 -24.44569229 8.16841556 -32 8.125 C-32.67289063 8.12886719 -33.34578125 8.13273438 -34.0390625 8.13671875 C-38.44321081 8.12821653 -42.69094648 7.93721914 -47 7 C-47.66 6.01 -48.32 5.02 -49 4 C-48.175 3.91959473 -47.35 3.83918945 -46.5 3.75634766 C-42.66644715 3.38144245 -38.83317726 3.00372089 -35 2.625 C-34.31449066 2.55752563 -33.62898132 2.49005127 -32.92269897 2.42053223 C-23.83637889 1.52381105 -14.77655465 0.53825706 -5.73828125 -0.765625 C-3 -1 -3 -1 0 0 Z " fill="#599CD5" transform="translate(198,209)"/>
<path d="M0 0 C2.0625 0.6875 2.0625 0.6875 4.125 1.375 C4.95 1.64828125 5.775 1.9215625 6.625 2.203125 C8.46616412 2.82088401 10.29776091 3.46719393 12.125 4.125 C15.39904039 5.12144708 18.60652841 5.59278341 22 6 C22 6.99 22 7.98 22 9 C23.32 9.33 24.64 9.66 26 10 C26 10.66 26 11.32 26 12 C39.86 11.67 53.72 11.34 68 11 C62.76740374 16.23259626 52.62939088 15.22022649 45.625 15.25 C28.52438644 15.09499444 13.70382593 11.57000527 0 1 C0 0.67 0 0.34 0 0 Z " fill="#6B99C5" transform="translate(118,215)"/>
<path d="M0 0 C1.32630565 4.14470514 1.98384711 9.03230578 0 13 C0.825 12.67 1.65 12.34 2.5 12 C6.5873983 10.83217191 9.76923344 10.8541115 14 11 C15.06325482 14.28642398 15.08418226 15.77083719 13.875 19.0625 C11.91080969 22.13973148 9.96972694 23.91316485 7 26 C7.66 24.02 8.32 22.04 9 20 C8.34 19.67 7.68 19.34 7 19 C7 18.01 7 17.02 7 16 C5.02 15.67 3.04 15.34 1 15 C1 15.99 1 16.98 1 18 C-0.375 19.6875 -0.375 19.6875 -2 21 C-2.66 21 -3.32 21 -4 21 C-4.33 19.02 -4.66 17.04 -5 15 C-3.68 15.33 -2.36 15.66 -1 16 C-1.33 11.38 -1.66 6.76 -2 2 C-3.27875 2.515625 -4.5575 3.03125 -5.875 3.5625 C-8.0546875 4.44140625 -8.0546875 4.44140625 -10 5 C-10.66 4.67 -11.32 4.34 -12 4 C-8.782764 -0.82585399 -5.4800525 -1.56572929 0 0 Z " fill="#EEB552" transform="translate(187,169)"/>
<path d="M0 0 C0 0.33 0 0.66 0 1 C-2.97 1 -5.94 1 -9 1 C-9 2.32 -9 3.64 -9 5 C-18.91282443 7.64341985 -28.82407634 7.19255751 -39 7 C-39 6.34 -39 5.68 -39 5 C-39.66 4.67 -40.32 4.34 -41 4 C-40.34 4 -39.68 4 -39 4 C-39 3.34 -39 2.68 -39 2 C-37.87464844 2.03480469 -36.74929687 2.06960937 -35.58984375 2.10546875 C-26.41372026 2.29739161 -18.15003643 1.78750911 -9.234375 -0.44140625 C-5.82584412 -1.03007765 -3.35110428 -0.76669204 0 0 Z " fill="#3492E7" transform="translate(192,219)"/>
<path d="M0 0 C0.66 0.33 1.32 0.66 2 1 C2 1.66 2 2.32 2 3 C2.57492188 3.268125 3.14984375 3.53625 3.7421875 3.8125 C6.06207538 5.03264864 8.04014008 6.4145552 10.125 8 C10.80820313 8.515625 11.49140625 9.03125 12.1953125 9.5625 C14 11 14 11 16 13 C14.02 13.99 14.02 13.99 12 15 C12 15.66 12 16.32 12 17 C2.54652724 14.89676836 -4.30351577 10.83509606 -10 3 C-9.67 2.34 -9.34 1.68 -9 1 C-7.68 1.66 -6.36 2.32 -5 3 C-5 3.66 -5 4.32 -5 5 C-4.01 5.33 -3.02 5.66 -2 6 C-2 6.66 -2 7.32 -2 8 C-0.68 8 0.64 8 2 8 C2 7.34 2 6.68 2 6 C1.34 6 0.68 6 0 6 C0 4.02 0 2.04 0 0 Z " fill="#4793D6" transform="translate(119,203)"/>
<path d="M0 0 C4.84476699 2.02467874 6.73926632 5.41054064 9 10 C9.8125 13.5 9.8125 13.5 10 16 C10.66 16 11.32 16 12 16 C12 19.3 12 22.6 12 26 C11.34 26 10.68 26 10 26 C8.68 22.37 7.36 18.74 6 15 C5.01 15.66 4.02 16.32 3 17 C2.67 16.34 2.34 15.68 2 15 C2.9375 12.875 2.9375 12.875 4 11 C4 11.66 4 12.32 4 13 C4.66 13 5.32 13 6 13 C4.6446674 10.46326712 4.6446674 10.46326712 3 8 C0.04486296 8 -1.43911463 9.70869542 -3.6015625 11.5546875 C-5.4667921 13.48243876 -6.26916019 15.44206065 -7 18 C-8.60054291 13.19837126 -6.13835378 9.40290548 -4 5 C-1.75 1.875 -1.75 1.875 0 0 Z " fill="#E9D07C" transform="translate(163,159)"/>
<path d="M0 0 C2.31 0 4.62 0 7 0 C7 0.99 7 1.98 7 3 C7.99 3.33 8.98 3.66 10 4 C11.26439145 5.45891321 12.52498852 6.92252344 13.7265625 8.43359375 C15.3505174 10.43115791 17.14709491 12.21572102 19 14 C12.19672424 14.26679513 7.78871099 13.85914066 2 10 C1.67 9.01 1.34 8.02 1 7 C0.34 6.34 -0.32 5.68 -1 5 C-0.625 2.375 -0.625 2.375 0 0 Z " fill="#EA973E" transform="translate(135,185)"/>
<path d="M0 0 C3.31438592 0.22598086 5.80054659 0.90692174 8.8125 2.3125 C12.32419133 6.62686364 11.90646181 11.59179187 12 17 C11.34 17 10.68 17 10 17 C9.67 15.68 9.34 14.36 9 13 C8.01 13.495 8.01 13.495 7 14 C7 13.01 7 12.02 7 11 C5.68 11 4.36 11 3 11 C3 12.65 3 14.3 3 16 C-0.70710572 13.60831889 -0.70710572 13.60831889 -1.8125 11.3125 C-2.10097758 7.7546098 -1.57778049 4.52446101 -1 1 C-0.67 0.67 -0.34 0.34 0 0 Z " fill="#EAA543" transform="translate(143,168)"/>
<path d="M0 0 C1.32 0 2.64 0 4 0 C4.33 0.66 4.66 1.32 5 2 C5.66 1.34 6.32 0.68 7 0 C7 1.98 7 3.96 7 6 C7.66 6 8.32 6 9 6 C9.27714844 6.69867188 9.55429688 7.39734375 9.83984375 8.1171875 C10.20207031 9.02726563 10.56429687 9.93734375 10.9375 10.875 C11.29714844 11.77992188 11.65679687 12.68484375 12.02734375 13.6171875 C12.94901262 15.96137667 12.94901262 15.96137667 14 18 C9.94797487 18.48238394 8.29216402 18.18904731 4.8125 15.9375 C1.71148883 13.04866328 0.21725624 10.08138856 -1 6 C-0.6875 2.5625 -0.6875 2.5625 0 0 Z " fill="#E88230" transform="translate(146,179)"/>
<path d="M0 0 C19.305 0.495 19.305 0.495 39 1 C34.4928687 4.38034848 34.4928687 4.38034848 30.4375 4.58203125 C29.56327393 4.6279541 28.68904785 4.67387695 27.78833008 4.72119141 C26.40810669 4.76638916 26.40810669 4.76638916 25 4.8125 C24.06115967 4.85036621 23.12231934 4.88823242 22.1550293 4.92724609 C14.81025036 5.14641759 6.72514009 5.36257004 0 2 C0 1.34 0 0.68 0 0 Z " fill="#5AA7E1" transform="translate(133,206)"/>
<path d="M0 0 C0.66 0 1.32 0 2 0 C1.125 5.75 1.125 5.75 0 8 C-0.55156982 15.73480475 0.12022324 22.24044647 3.625 29.25 C5 32 5 32 5 35 C1.48762943 34.05071066 0.23704017 33.37249169 -1.75 30.25 C-5.20042625 21.27889175 -5.05763918 11.64924262 -1.75390625 2.6796875 C-1 1 -1 1 0 0 Z " fill="#2771C8" transform="translate(109,171)"/>
<path d="M0 0 C0.33 0.99 0.66 1.98 1 3 C3.29534258 4.13545562 3.29534258 4.13545562 6 5 C8.5 6 8.5 6 11 7 C10.67 7.66 10.34 8.32 10 9 C-5.74487472 8.58997722 -5.74487472 8.58997722 -13 4 C-13 3.34 -13 2.68 -13 2 C-8.50343896 -0.24828052 -4.92127034 -0.16682272 0 0 Z " fill="#52A4DC" transform="translate(135,196)"/>
<path d="M0 0 C2.83526512 0.35440814 4.58950039 0.89161563 7 2.375 C6 5.375 6 5.375 3.375 7 C-3.57040162 9.82960807 -10.62142602 9.49508529 -18 9.375 C-17.67 8.715 -17.34 8.055 -17 7.375 C-14.85546875 6.6640625 -14.85546875 6.6640625 -12.1875 6 C-7.30495808 4.64950968 -4.68054867 0.58506858 0 0 Z " fill="#3E9DDA" transform="translate(200,195.625)"/>
<path d="M0 0 C0.66 0.33 1.32 0.66 2 1 C4.61694634 10.24654374 4.85102017 20.44481348 0.96875 29.37109375 C-0.125 31.3125 -0.125 31.3125 -2 34 C-3.32091757 30.24970256 -2.71876639 27.24396918 -2.0625 23.375 C-1.25706697 18.20948951 -0.86697006 13.34940963 -0.99609375 8.1328125 C-1.00119067 5.3498966 -0.57220904 2.71799293 0 0 Z " fill="#70A2D0" transform="translate(221,174)"/>
<path d="M0 0 C6.75923474 -0.50068405 11.99272183 0.80963379 18 4 C19.79296875 5.63671875 19.79296875 5.63671875 21 7 C20.01 8.485 20.01 8.485 19 10 C17 8 17 8 16 6 C15.29875 6.18304688 14.5975 6.36609375 13.875 6.5546875 C10.63671758 7.05626929 8.21399587 6.72352474 5 6.125 C3.989375 5.94195312 2.97875 5.75890625 1.9375 5.5703125 C-0.71031036 5.05624294 -3.35625742 4.5345803 -6 4 C-6 3.34 -6 2.68 -6 2 C-4.02 2 -2.04 2 0 2 C0 1.34 0 0.68 0 0 Z " fill="#3A90E0" transform="translate(178,147)"/>
<path d="M0 0 C2.39592817 1.84499282 2.96194791 2.7754303 3.4765625 5.8125 C3.52554688 6.864375 3.57453125 7.91625 3.625 9 C3.79501343 12.30311813 3.95091429 14.85274287 5 18 C5.99 18 6.98 18 8 18 C10.125 24.75 10.125 24.75 9 27 C9.66 27 10.32 27 11 27 C11 27.66 11 28.32 11 29 C7 29 7 29 5.34765625 27.80859375 C3.71352469 25.61554183 3.13236073 23.70297077 2.4375 21.0625 C1.48084032 17.43877832 1.48084032 17.43877832 -0.11328125 14.07421875 C-1.36149094 11.15439784 -0.96537079 8.88141128 -0.625 5.75 C-0.51414062 4.67234375 -0.40328125 3.5946875 -0.2890625 2.484375 C-0.19367188 1.66453125 -0.09828125 0.8446875 0 0 Z " fill="#2D8AE1" transform="translate(110,182)"/>
<path d="M0 0 C0 0.33 0 0.66 0 1 C-1.09957031 1.15855469 -2.19914062 1.31710938 -3.33203125 1.48046875 C-17.17073726 3.60998294 -30.03189967 7.64851119 -40 18 C-40.66 18 -41.32 18 -42 18 C-41.45635208 14.23565003 -40.0981736 12.85321916 -37.125 10.5625 C-26.30120446 2.56453716 -13.44417192 -2.42053421 0 0 Z " fill="#286DBD" transform="translate(159,144)"/>
<path d="M0 0 C0.99 0 1.98 0 3 0 C4 3 4 3 4 6 C4.495 7.11375 4.99 8.2275 5.5 9.375 C6.86976637 12.68526872 7.31747077 14.50782153 7 18 C3.625 18.1875 3.625 18.1875 0 18 C-0.66 17.01 -1.32 16.02 -2 15 C-1.01 15 -0.02 15 1 15 C0.505 14.13375 0.01 13.2675 -0.5 12.375 C-2.07057157 8.84121396 -2.42322473 6.80902261 -2 3 C-1.34 2.01 -0.68 1.02 0 0 Z " fill="#2583DF" transform="translate(206,208)"/>
<path d="M0 0 C3 2 3 2 4 5 C5.20623542 32.35068686 5.20623542 32.35068686 -3 43 C-3.66 42.67 -4.32 42.34 -5 42 C-4.3503125 41.071875 -4.3503125 41.071875 -3.6875 40.125 C0.5653623 32.24932908 1.48027712 24.83054981 1 16 C0.96326172 15.32437012 0.92652344 14.64874023 0.88867188 13.95263672 C0.62916377 9.29899737 0.32668138 4.64937604 0 0 Z " fill="#4F98D6" transform="translate(217,167)"/>
<path d="M0 0 C0 0.66 0 1.32 0 2 C-2.64 2.66 -5.28 3.32 -8 4 C-5.36 4.33 -2.72 4.66 0 5 C0 5.33 0 5.66 0 6 C-2.52090778 6.0272367 -5.04151457 6.04695207 -7.5625 6.0625 C-8.61920898 6.07506836 -8.61920898 6.07506836 -9.69726562 6.08789062 C-14.21250341 6.10869817 -18.56926028 5.97777989 -23 5 C-23.66 4.01 -24.32 3.02 -25 2 C-21.77125066 1.66254072 -18.5419413 1.33076631 -15.3125 1 C-13.94448242 0.85691406 -13.94448242 0.85691406 -12.54882812 0.7109375 C-11.21948242 0.57558594 -11.21948242 0.57558594 -9.86328125 0.4375 C-9.05157471 0.35371094 -8.23986816 0.26992187 -7.40356445 0.18359375 C-4.92615534 -0.00564055 -2.4836252 -0.03092452 0 0 Z " fill="#6DABD9" transform="translate(174,211)"/>
<path d="M0 0 C2.64 0 5.28 0 8 0 C7.814375 0.598125 7.62875 1.19625 7.4375 1.8125 C6.77906313 4.16408762 6.77906313 4.16408762 8 7 C6.65202555 10.80604549 5.57129868 12.61913421 2.1875 14.875 C-1.1100371 16.03883662 -3.53291185 16.24764915 -7 16 C-6.2265625 15.6596875 -6.2265625 15.6596875 -5.4375 15.3125 C-2.07596873 13.5024447 0.92911144 11.26003596 4 9 C3.24849977 5.72226496 3.24849977 5.72226496 0 4 C0 2.68 0 1.36 0 0 Z " fill="#EBA543" transform="translate(188,184)"/>
<path d="M0 0 C1.04976964 3.14930893 1.10131595 5.38814456 1.0625 8.6875 C1.05347656 9.68136719 1.04445312 10.67523438 1.03515625 11.69921875 C1.02355469 12.45847656 1.01195312 13.21773437 1 14 C-0.32 13.67 -1.64 13.34 -3 13 C-3.144375 12.21625 -3.28875 11.4325 -3.4375 10.625 C-3.87798925 8.03578982 -3.87798925 8.03578982 -5 6 C-4.67 5.67 -4.34 5.34 -4 5 C-4.66 4.67 -5.32 4.34 -6 4 C-6.99 4.495 -6.99 4.495 -8 5 C-8.65772428 8.02934491 -8.65772428 8.02934491 -9 11 C-9.33 11 -9.66 11 -10 11 C-10 8.36 -10 5.72 -10 3 C-8.70990357 2.49596232 -7.41786211 1.99690074 -6.125 1.5 C-5.04605469 1.08234375 -5.04605469 1.08234375 -3.9453125 0.65625 C-2 0 -2 0 0 0 Z " fill="#E9B14F" transform="translate(185,171)"/>
<path d="M0 0 C2 2 2 2 2.265625 4.390625 C2.22863498 11.15979801 1.84341006 16.23488491 -2 22 C-3.32 21.67 -4.64 21.34 -6 21 C-5.27490234 20.48953125 -5.27490234 20.48953125 -4.53515625 19.96875 C-2.26916219 17.06274235 -2.50837244 14.04362178 -2.4375 10.5 C-2.25445765 3.38168648 -2.25445765 3.38168648 0 0 Z " fill="#3894E4" transform="translate(217,181)"/>
<path d="M0 0 C3 1 3 1 4.1875 3.375 C5 6 5 6 5 9 C5.66 9 6.32 9 7 9 C7 12.3 7 15.6 7 19 C6.34 19 5.68 19 5 19 C3.68 15.37 2.36 11.74 1 8 C0.01 8.66 -0.98 9.32 -2 10 C-2.33 9.34 -2.66 8.68 -3 8 C-2.0625 5.875 -2.0625 5.875 -1 4 C-1 4.66 -1 5.32 -1 6 C-0.34 6 0.32 6 1 6 C0.67 4.02 0.34 2.04 0 0 Z " fill="#F4C764" transform="translate(168,166)"/>
<path d="M0 0 C2.64 0 5.28 0 8 0 C8.33 0.99 8.66 1.98 9 3 C11.475 3.495 11.475 3.495 14 4 C14.33 3.01 14.66 2.02 15 1 C15.33 2.32 15.66 3.64 16 5 C13.29216168 5.22314035 10.58481976 5.42889462 7.875 5.625 C7.11445313 5.68945312 6.35390625 5.75390625 5.5703125 5.8203125 C0.88675858 6.14331622 -2.57646619 5.85138316 -7 4 C-7 3.34 -7 2.68 -7 2 C-4.03 2.33 -1.06 2.66 2 3 C2 2.34 2 1.68 2 1 C1.34 0.67 0.68 0.34 0 0 Z " fill="#3C89D7" transform="translate(199,222)"/>
<path d="M0 0 C0 0.33 0 0.66 0 1 C-2.97 1 -5.94 1 -9 1 C-9 2.32 -9 3.64 -9 5 C-11.40545638 6.20272819 -12.94996953 6.10071472 -15.625 6.0625 C-16.85089844 6.04896484 -16.85089844 6.04896484 -18.1015625 6.03515625 C-19.04128906 6.01775391 -19.04128906 6.01775391 -20 6 C-20 5.67 -20 5.34 -20 5 C-22.97 4.505 -22.97 4.505 -26 4 C-25.67 3.34 -25.34 2.68 -25 2 C-23.03125 1.65625 -23.03125 1.65625 -20.5 1.5 C-16.96210191 1.22707643 -13.68752054 0.7519185 -10.25 -0.125 C-6.55697674 -1.01709798 -3.73096606 -0.95665796 0 0 Z " fill="#56A1E0" transform="translate(192,219)"/>
<path d="M0 0 C1.875 0.25 1.875 0.25 4 1 C5.25 3.0625 5.25 3.0625 6 5 C2.59836809 10.70988214 2.59836809 10.70988214 -0.0625 12 C-2 12 -2 12 -5 10 C-4.67 9.01 -4.34 8.02 -4 7 C-3.34 7 -2.68 7 -2 7 C-1.34 4.69 -0.68 2.38 0 0 Z " fill="#E7872A" transform="translate(174,186)"/>
<path d="M0 0 C0.99 0.33 1.98 0.66 3 1 C3 2.32 3 3.64 3 5 C2.34 5 1.68 5 1 5 C1 6.32 1 7.64 1 9 C-1 11 -1 11 -3.625 11.125 C-4.40875 11.08375 -5.1925 11.0425 -6 11 C-6.66 9.35 -7.32 7.7 -8 6 C-6.20963542 5.0234375 -4.41927083 4.046875 -2.62890625 3.0703125 C-0.83381685 2.08589976 -0.83381685 2.08589976 0 0 Z " fill="#E68430" transform="translate(168,187)"/>
<path d="M0 0 C1.32 0 2.64 0 4 0 C4.33 0.66 4.66 1.32 5 2 C5.66 1.34 6.32 0.68 7 0 C7 1.65 7 3.3 7 5 C6.01 4.67 5.02 4.34 4 4 C3.66821038 8.75565125 4.46288874 11.02886933 7 15 C6.67 15.66 6.34 16.32 6 17 C0.0733945 10.29357798 0.0733945 10.29357798 -1 6 C-0.625 2.6875 -0.625 2.6875 0 0 Z " fill="#E7943B" transform="translate(146,179)"/>
<path d="M0 0 C0.66 0 1.32 0 2 0 C2 1.32 2 2.64 2 4 C1.34 4 0.68 4 0 4 C-2.45453814 9.96102119 -4.28078523 15.04372671 -4.25 21.5625 C-4.25515625 22.65691406 -4.2603125 23.75132812 -4.265625 24.87890625 C-4.00000859 27.9998991 -3.22839824 30.14836123 -2 33 C-2 33.99 -2 34.98 -2 36 C-2.99 35.67 -3.98 35.34 -5 35 C-6.32927479 31.01217564 -6.1841626 27.36258371 -6.1875 23.1875 C-6.19974609 22.39279297 -6.21199219 21.59808594 -6.22460938 20.77929688 C-6.23620966 16.10438218 -5.77574449 12.3964529 -4 8 C-3.505 6.6078125 -3.505 6.6078125 -3 5.1875 C-2 3 -2 3 0 2 C0 1.34 0 0.68 0 0 Z " fill="#4389CC" transform="translate(119,165)"/>
<path d="M0 0 C0.89893758 3.09234528 1.16349234 5.90797357 1.1875 9.125 C1.20167969 9.99382812 1.21585938 10.86265625 1.23046875 11.7578125 C1 14 1 14 -1 16 C-1.33 11.38 -1.66 6.76 -2 2 C-3.27875 2.515625 -4.5575 3.03125 -5.875 3.5625 C-8.0546875 4.44140625 -8.0546875 4.44140625 -10 5 C-10.66 4.67 -11.32 4.34 -12 4 C-8.782764 -0.82585399 -5.4800525 -1.56572929 0 0 Z " fill="#ECD081" transform="translate(187,169)"/>
<path d="M0 0 C4.90801549 1.48727742 8.40491293 4.44635485 12 8 C12 8.33 12 8.66 12 9 C7.64934099 9.2636763 4.05675183 8.60739223 0 7 C-1.4375 4.375 -1.4375 4.375 -2 2 C-1.34 1.34 -0.68 0.68 0 0 Z " fill="#E68B33" transform="translate(142,190)"/>
<path d="M0 0 C0.91007813 0.00902344 1.82015625 0.01804688 2.7578125 0.02734375 C3.45648438 0.03894531 4.15515625 0.05054688 4.875 0.0625 C5.93825482 3.34892398 5.95918226 4.83333719 4.75 8.125 C2.78580969 11.20223148 0.84472694 12.97566485 -2.125 15.0625 C-1.795 13.7425 -1.465 12.4225 -1.125 11.0625 C-0.465 11.0625 0.195 11.0625 0.875 11.0625 C0.875 10.0725 0.875 9.0825 0.875 8.0625 C1.535 8.0625 2.195 8.0625 2.875 8.0625 C2.875 6.0825 2.875 4.1025 2.875 2.0625 C1.59625 2.26875 0.3175 2.475 -1 2.6875 C-3.1796875 3.0390625 -3.1796875 3.0390625 -5.125 3.0625 C-5.785 2.4025 -6.445 1.7425 -7.125 1.0625 C-4.60024538 -0.19987731 -2.81299534 -0.03606404 0 0 Z " fill="#E9C871" transform="translate(196.125,179.9375)"/>
<path d="M0 0 C0 0.66 0 1.32 0 2 C-3.37498158 2.02922646 -6.74993021 2.04687468 -10.125 2.0625 C-11.55199219 2.07506836 -11.55199219 2.07506836 -13.0078125 2.08789062 C-17.79018487 2.10449608 -22.29771569 2.00537055 -27 1 C-27 0.67 -27 0.34 -27 0 C-17.97231444 -1.50461426 -9.07712633 -0.63647596 0 0 Z " fill="#3D73BB" transform="translate(180,143)"/>
<path d="M0 0 C1.65 0 3.3 0 5 0 C5.33 1.32 5.66 2.64 6 4 C5.01 4 4.02 4 3 4 C3.33 5.32 3.66 6.64 4 8 C4.99 7.67 5.98 7.34 7 7 C7.33 8.65 7.66 10.3 8 12 C7.01 12 6.02 12 5 12 C4.34 10.35 3.68 8.7 3 7 C2.34 7 1.68 7 1 7 C-0.38938077 5.03852126 -1.7260411 3.03833424 -3 1 C-2.01 1 -1.02 1 0 1 C0 0.67 0 0.34 0 0 Z " fill="#4C9FE0" transform="translate(204,160)"/>
<path d="M0 0 C0.33 0.99 0.66 1.98 1 3 C2.54613827 6.04516429 4.13127709 9.06809556 5.72265625 12.08984375 C7 15 7 15 7 19 C2.48382401 19.07654536 -1.59085217 19.10228696 -6 18 C-6 17.67 -6 17.34 -6 17 C-2.37 17 1.26 17 5 17 C2.69 12.05 0.38 7.1 -2 2 C-1.34 1.34 -0.68 0.68 0 0 Z " fill="#66A5E8" transform="translate(210,210)"/>
<path d="M0 0 C1.32 0 2.64 0 4 0 C4.33 1.32 4.66 2.64 5 4 C5 3.34 5 2.68 5 2 C10.445 3.485 10.445 3.485 16 5 C16 5.99 16 6.98 16 8 C13.69 8 11.38 8 9 8 C9 7.01 9 6.02 9 5 C7.906875 5.061875 6.81375 5.12375 5.6875 5.1875 C2 5 2 5 0.0625 3.5 C-0.4634375 2.7575 -0.4634375 2.7575 -1 2 C-0.67 1.34 -0.34 0.68 0 0 Z " fill="#3996E8" transform="translate(131,216)"/>
<path d="M0 0 C0.99 0 1.98 0 3 0 C3.96398647 2.8919594 4 4.9994375 4 8 C3.01 8 2.02 8 1 8 C1.66 9.65 2.32 11.3 3 13 C2.01 13.495 2.01 13.495 1 14 C-1.69148306 10.18706566 -2.50707684 7.66510697 -2 3 C-1.34 2.01 -0.68 1.02 0 0 Z " fill="#358CDE" transform="translate(206,208)"/>
<path d="M0 0 C0 0.66 0 1.32 0 2 C-1.98 2 -3.96 2 -6 2 C-6.33 2.66 -6.66 3.32 -7 4 C-7.66 3.34 -8.32 2.68 -9 2 C-11.20250992 1.53993654 -11.20250992 1.53993654 -13.625 1.375 C-14.85089844 1.26285156 -14.85089844 1.26285156 -16.1015625 1.1484375 C-16.72804687 1.09945312 -17.35453125 1.05046875 -18 1 C-18 0.34 -18 -0.32 -18 -1 C-11.40609458 -1.99989549 -6.38232875 -2.00925164 0 0 Z " fill="#2889E3" transform="translate(178,147)"/>
<path d="M0 0 C0.66 0.33 1.32 0.66 2 1 C1.14125542 8.51401508 0.378845 14.7236555 -4 21 C-5.16947188 17.58577002 -4.81489457 15.5803699 -3.6875 12.1875 C-3.40648437 11.31738281 -3.12546875 10.44726562 -2.8359375 9.55078125 C-2.56007812 8.70902344 -2.28421875 7.86726562 -2 7 C-1.59665921 5.62718347 -1.19965043 4.25246999 -0.8125 2.875 C-0.544375 1.92625 -0.27625 0.9775 0 0 Z " fill="#9DB9D9" transform="translate(223,187)"/>
<path d="M0 0 C1.98 0 3.96 0 6 0 C6.66 2.97 7.32 5.94 8 9 C6.35 10.32 4.7 11.64 3 13 C1.7922442 9.37673261 2.45688872 8.35853631 4 5 C2.35 4.01 0.7 3.02 -1 2 C-0.67 1.34 -0.34 0.68 0 0 Z " fill="#EC9952" transform="translate(175,184)"/>
<path d="M0 0 C0.99 0.495 0.99 0.495 2 1 C2 1.66 2 2.32 2 3 C2.5775 3.268125 3.155 3.53625 3.75 3.8125 C6.12367963 5.06527536 8.06206571 6.13127765 10 8 C10.25 10.6875 10.25 10.6875 10 13 C9.67 11.68 9.34 10.36 9 9 C7.02 9 5.04 9 3 9 C2.67 9.66 2.34 10.32 2 11 C1.67 10.34 1.34 9.68 1 9 C1.33 8.01 1.66 7.02 2 6 C1.34 6 0.68 6 0 6 C0 4.02 0 2.04 0 0 Z " fill="#4D99DE" transform="translate(119,203)"/>
<path d="M0 0 C0.309375 0.639375 0.61875 1.27875 0.9375 1.9375 C1.8345163 3.93610821 1.8345163 3.93610821 3 5 C3.04080783 6.99958364 3.04254356 9.00045254 3 11 C2.34 10.34 1.68 9.68 1 9 C0.67 11.64 0.34 14.28 0 17 C-0.66 16.67 -1.32 16.34 -2 16 C-2.05449838 14.27119018 -2.09301688 12.54187288 -2.125 10.8125 C-2.14820312 9.84957031 -2.17140625 8.88664063 -2.1953125 7.89453125 C-1.9913544 4.87187222 -1.26874632 2.73230015 0 0 Z " fill="#3C91E7" transform="translate(110,174)"/>
<path d="M0 0 C4.87664905 0.3324988 7.41420857 1.73060194 11 5 C10.67 5.66 10.34 6.32 10 7 C9.34 6.67 8.68 6.34 8 6 C8 5.34 8 4.68 8 4 C5.69 4 3.38 4 1 4 C0.67 5.98 0.34 7.96 0 10 C-0.66 9.67 -1.32 9.34 -2 9 C-1.125 1.125 -1.125 1.125 0 0 Z " fill="#E9CC7D" transform="translate(143,168)"/>
<path d="M0 0 C0.66 0.66 1.32 1.32 2 2 C1.34 3.98 0.68 5.96 0 8 C-0.66 8 -1.32 8 -2 8 C-2.93423645 11.01031744 -3.04449911 11.86650268 -2 15 C-2.99 15 -3.98 15 -5 15 C-5.73080266 13.02253397 -6.39421747 11.01927511 -7 9 C-6 7 -6 7 -4.0625 6.1875 C-1.31843292 4.60758259 -0.93109876 2.9484794 0 0 Z " fill="#7BA8D0" transform="translate(217,203)"/>
<path d="M0 0 C0.66 0 1.32 0 2 0 C1.60180164 3.34486621 1.09539361 5.82113699 -0.5 8.8125 C-2.40406815 12.85864481 -2.71514998 16.57991354 -3 21 C-3.33 21 -3.66 21 -4 21 C-4.36459298 13.77565758 -3.9909985 7.66388268 -1 1 C-0.67 0.67 -0.34 0.34 0 0 Z " fill="#3773B7" transform="translate(109,171)"/>
<path d="M0 0 C0.33 0.99 0.66 1.98 1 3 C-1.58463502 2.71749338 -4.16731135 2.4243774 -6.75 2.125 C-7.84441406 2.00705078 -7.84441406 2.00705078 -8.9609375 1.88671875 C-12.66777257 1.44863824 -15.80452172 1.0013785 -19 -1 C-12.23893038 -2.27567351 -6.68650564 -1.48725585 0 0 Z " fill="#2F6EB9" transform="translate(191,146)"/>
<path d="M0 0 C7.92 0 15.84 0 24 0 C19.58617295 3.31037029 18.28512118 3.39887707 13 3 C12.67 2.67 12.34 2.34 12 2 C9.98405418 1.76572222 7.961526 1.58663876 5.9375 1.4375 C4.83277344 1.35371094 3.72804687 1.26992187 2.58984375 1.18359375 C1.73519531 1.12300781 0.88054687 1.06242188 0 1 C0 0.67 0 0.34 0 0 Z " fill="#7BAED2" transform="translate(148,207)"/>
<path d="M0 0 C3.78597774 0.51626969 6.61339441 1.30669721 10 3 C11.99110401 3.38290462 13.99100513 3.72604615 16 4 C15.34 5.65 14.68 7.3 14 9 C13.236875 8.34 12.47375 7.68 11.6875 7 C9.15722061 4.70149462 9.15722061 4.70149462 6 5 C6 4.34 6 3.68 6 3 C4.35 2.67 2.7 2.34 1 2 C1 2.66 1 3.32 1 4 C0.34 3.67 -0.32 3.34 -1 3 C-0.67 2.01 -0.34 1.02 0 0 Z " fill="#539FDB" transform="translate(135,216)"/>
<path d="M0 0 C0 0.66 0 1.32 0 2 C-2.64 2.66 -5.28 3.32 -8 4 C-8 3.67 -8 3.34 -8 3 C-11.63 2.67 -15.26 2.34 -19 2 C-19 1.67 -19 1.34 -19 1 C-16.39674384 0.63752129 -13.79279598 0.28472345 -11.1875 -0.0625 C-10.44951172 -0.16626953 -9.71152344 -0.27003906 -8.95117188 -0.37695312 C-5.56825221 -0.82086566 -3.27944975 -1.09314992 0 0 Z " fill="#7DB3DF" transform="translate(198,209)"/>
<path d="M0 0 C-0.125 1.8125 -0.125 1.8125 -1 4 C-4.20883825 5.95320589 -6.2205439 7 -10 7 C-10.33 7.66 -10.66 8.32 -11 9 C-10.40112592 5.64630514 -9.27617653 3.53881228 -7 1 C-4 0 -4 0 0 0 Z " fill="#E58631" transform="translate(190,190)"/>
<path d="M0 0 C2.31 0 4.62 0 7 0 C6.34 0.66 5.68 1.32 5 2 C2.875 1.625 2.875 1.625 1 1 C1.33 1.5775 1.66 2.155 2 2.75 C3 5 3 5 3 9 C6.50538557 10.96301592 10.13351728 11.95902388 14 13 C11.35258834 13.98052284 10.17553789 14.05565835 7.4375 13.1875 C5 12 5 12 2 10 C1.67 9.01 1.34 8.02 1 7 C0.34 6.34 -0.32 5.68 -1 5 C-0.625 2.375 -0.625 2.375 0 0 Z " fill="#EAA543" transform="translate(135,185)"/>
<path d="M0 0 C0.98484375 0.11085937 1.9696875 0.22171875 2.984375 0.3359375 C3.73203125 0.43132812 4.4796875 0.52671875 5.25 0.625 C4.26 1.12 4.26 1.12 3.25 1.625 C3.25 2.285 3.25 2.945 3.25 3.625 C5.23 3.625 7.21 3.625 9.25 3.625 C9.25 3.955 9.25 4.285 9.25 4.625 C4.76054291 4.71478914 0.66476795 4.39278573 -3.75 3.625 C-5.41627298 3.58877667 -7.08405374 3.57600158 -8.75 3.625 C-9.08 2.965 -9.41 2.305 -9.75 1.625 C-6.30824478 -0.52199969 -3.9779708 -0.47356795 0 0 Z " fill="#E7B07D" transform="translate(171.75,196.375)"/>
<path d="M0 0 C0.33 0.99 0.66 1.98 1 3 C1.66 3.33 2.32 3.66 3 4 C2.505 3.835 2.01 3.67 1.5 3.5 C-2.03444089 2.79311182 -5.39690701 2.93994845 -9 3 C-9 3.66 -9 4.32 -9 5 C-10.32 4.67 -11.64 4.34 -13 4 C-13 3.34 -13 2.68 -13 2 C-8.50343896 -0.24828052 -4.92127034 -0.16682272 0 0 Z " fill="#6CAEDD" transform="translate(135,196)"/>
<path d="M0 0 C-0.33 0.66 -0.66 1.32 -1 2 C-5.29 2 -9.58 2 -14 2 C-13.67 0.68 -13.34 -0.64 -13 -2 C-7.60776837 -3.07844633 -4.82361952 -2.49497561 0 0 Z " fill="#247ED8" transform="translate(158,148)"/>
<path d="M0 0 C2.66835253 3.15350754 3.70430149 6.11290448 5 10 C6.51553153 12.30166675 6.51553153 12.30166675 8 14 C7.67 14.66 7.34 15.32 7 16 C6.59007812 15.50628906 6.18015625 15.01257813 5.7578125 14.50390625 C5.21898437 13.86324219 4.68015625 13.22257813 4.125 12.5625 C3.59132812 11.92441406 3.05765625 11.28632813 2.5078125 10.62890625 C1.0777243 8.89194996 1.0777243 8.89194996 -1 8 C-1.04241723 5.66705225 -1.04092937 3.33297433 -1 1 C-0.67 0.67 -0.34 0.34 0 0 Z " fill="#F4BA70" transform="translate(143,180)"/>
<path d="M0 0 C0 0.66 0 1.32 0 2 C0.99 2.33 1.98 2.66 3 3 C2.67 3.66 2.34 4.32 2 5 C1.01 4.67 0.02 4.34 -1 4 C-1 3.01 -1 2.02 -1 1 C-2.32 1 -3.64 1 -5 1 C-5.33 3.97 -5.66 6.94 -6 10 C-6.99 9.67 -7.98 9.34 -9 9 C-8.71872579 7.51882199 -8.42466268 6.04006751 -8.125 4.5625 C-7.96257812 3.73878906 -7.80015625 2.91507813 -7.6328125 2.06640625 C-7.42398438 1.38449219 -7.21515625 0.70257813 -7 0 C-4.3333581 -1.33332095 -2.83319697 -0.67102033 0 0 Z " fill="#EABA51" transform="translate(151,172)"/>
<path d="M0 0 C0.99 0.66 1.98 1.32 3 2 C2.16855469 2.67095703 2.16855469 2.67095703 1.3203125 3.35546875 C-4.14132545 7.74888571 -4.14132545 7.74888571 -7 14 C-8.13643966 10.59068103 -7.86747764 9.99664544 -6.5625 6.8125 C-6.27503906 6.09707031 -5.98757812 5.38164062 -5.69140625 4.64453125 C-5.46324219 4.10183594 -5.23507813 3.55914062 -5 3 C-4.01 3 -3.02 3 -2 3 C-2 2.34 -2 1.68 -2 1 C-1.34 0.67 -0.68 0.34 0 0 Z " fill="#E9C869" transform="translate(163,163)"/>
<path d="M0 0 C3 1 3 1 4.25 3.375 C5 6 5 6 4 9 C3.38125 8.79375 2.7625 8.5875 2.125 8.375 C1.42375 8.25125 0.7225 8.1275 0 8 C-0.66 8.66 -1.32 9.32 -2 10 C-2.33 9.34 -2.66 8.68 -3 8 C-2.0625 5.875 -2.0625 5.875 -1 4 C-1 4.66 -1 5.32 -1 6 C-0.34 6 0.32 6 1 6 C0.67 4.02 0.34 2.04 0 0 Z " fill="#E8C361" transform="translate(168,166)"/>
<path d="M0 0 C1.8871875 0.0309375 1.8871875 0.0309375 3.8125 0.0625 C3.8125 0.3925 3.8125 0.7225 3.8125 1.0625 C1.5025 1.3925 -0.8075 1.7225 -3.1875 2.0625 C-3.1875 4.0425 -3.1875 6.0225 -3.1875 8.0625 C-2.5275 8.0625 -1.8675 8.0625 -1.1875 8.0625 C-1.5175 9.3825 -1.8475 10.7025 -2.1875 12.0625 C-4.82129708 8.40916857 -6.65634894 5.57728398 -7.1875 1.0625 C-4.43671116 0.14557039 -2.82801087 -0.04636083 0 0 Z " fill="#EAC87C" transform="translate(134.1875,179.9375)"/>
<path d="M0 0 C1.37478516 0.01740234 1.37478516 0.01740234 2.77734375 0.03515625 C3.69644531 0.04417969 4.61554688 0.05320313 5.5625 0.0625 C6.27277344 0.07410156 6.98304688 0.08570313 7.71484375 0.09765625 C8.04484375 1.41765625 8.37484375 2.73765625 8.71484375 4.09765625 C0.14341518 3.24051339 0.14341518 3.24051339 -3.28515625 1.09765625 C-2.28515625 0.09765625 -2.28515625 0.09765625 0 0 Z " fill="#EFC05E" transform="translate(133.28515625,180.90234375)"/>
<path d="M0 0 C3.91402949 1.26941497 5.79072873 2.51167694 8 6 C7.01 6.495 7.01 6.495 6 7 C5.67 7.66 5.34 8.32 5 9 C3.02 8.34 1.04 7.68 -1 7 C0 4 0 4 1 3 C0.67 2.01 0.34 1.02 0 0 Z " fill="#4DA7ED" transform="translate(199,154)"/>
<path d="M0 0 C2.475 0.99 2.475 0.99 5 2 C5 2.66 5 3.32 5 4 C5.99 4.33 6.98 4.66 8 5 C9.1875 7.5625 9.1875 7.5625 10 10 C7 10 7 10 5.17578125 8.3203125 C4.56089844 7.59585938 3.94601563 6.87140625 3.3125 6.125 C2.68988281 5.40570313 2.06726563 4.68640625 1.42578125 3.9453125 C0 2 0 2 0 0 Z " fill="#699CCE" transform="translate(109,204)"/>
<path d="M0 0 C1.4835001 0.42257276 2.96176424 0.86356322 4.4375 1.3125 C5.67306641 1.67794922 5.67306641 1.67794922 6.93359375 2.05078125 C7.61550781 2.36402344 8.29742187 2.67726562 9 3 C9.33 3.99 9.66 4.98 10 6 C12.31 6.33 14.62 6.66 17 7 C15.38671875 8.203125 15.38671875 8.203125 13 9 C10.01953125 7.734375 10.01953125 7.734375 6.8125 5.75 C5.74644531 5.10546875 4.68039063 4.4609375 3.58203125 3.796875 C1 2 1 2 0 0 Z " fill="#7C9FCA" transform="translate(118,215)"/>
<path d="M0 0 C2.625 0.9375 2.625 0.9375 5 2 C4 5 4 5 1.0625 6.75 C-0.4534375 7.36875 -0.4534375 7.36875 -2 8 C-2.66 7.67 -3.32 7.34 -4 7 C-3.01 6.67 -2.02 6.34 -1 6 C-1.33 4.35 -1.66 2.7 -2 1 C-1.34 0.67 -0.68 0.34 0 0 Z " fill="#63A8DF" transform="translate(202,196)"/>
<path d="M0 0 C4 1 4 1 5.25 3.0625 C5.4975 3.701875 5.745 4.34125 6 5 C5.01 5.66 4.02 6.32 3 7 C2.67 5.68 2.34 4.36 2 3 C1.01 4.98 0.02 6.96 -1 9 C-1.66 9 -2.32 9 -3 9 C-2.01 6.03 -1.02 3.06 0 0 Z " fill="#E28337" transform="translate(174,186)"/>
<path d="M0 0 C1.5 1.375 1.5 1.375 3 3 C3 3.66 3 4.32 3 5 C3.66 5 4.32 5 5 5 C4.855625 5.680625 4.71125 6.36125 4.5625 7.0625 C3.93054091 10.36273082 3.45686059 13.67144426 3 17 C2.67 17 2.34 17 2 17 C1.93941406 16.27554688 1.87882813 15.55109375 1.81640625 14.8046875 C1.38516567 9.82883467 0.92952359 4.91319609 0 0 Z " fill="#65AADD" transform="translate(212,174)"/>
<path d="M0 0 C3.96 0 7.92 0 12 0 C12 0.66 12 1.32 12 2 C8.49852959 3.1671568 5.67329964 3.13357453 2 3 C1.34 2.67 0.68 2.34 0 2 C0 1.34 0 0.68 0 0 Z " fill="#60A4D7" transform="translate(133,206)"/>
<path d="M0 0 C2.475 0.99 2.475 0.99 5 2 C4.67 2.99 4.34 3.98 4 5 C2.06183265 4.8858134 0.12444901 4.75826577 -1.8125 4.625 C-2.89144531 4.55539063 -3.97039062 4.48578125 -5.08203125 4.4140625 C-8 4 -8 4 -11 2 C-7.04 2 -3.08 2 1 2 C0.67 1.34 0.34 0.68 0 0 Z " fill="#EABB85" transform="translate(152,196)"/>
<path d="M0 0 C3 2 3 2 4 5 C4.03954234 7.33299825 4.04401732 9.66708189 4 12 C2 10.5 2 10.5 0 8 C-0.35800135 5.24128373 -0.18660165 2.79902476 0 0 Z " fill="#5390C9" transform="translate(217,167)"/>
<path d="M0 0 C2.64 0 5.28 0 8 0 C6.25 2.5 6.25 2.5 4 5 C2.68 5 1.36 5 0 5 C0 4.34 0 3.68 0 3 C-0.66 2.67 -1.32 2.34 -2 2 C-1.34 2 -0.68 2 0 2 C0 1.34 0 0.68 0 0 Z " fill="#5FA6E9" transform="translate(153,221)"/>
<path d="M0 0 C0 0.66 0 1.32 0 2 C0.66 2.33 1.32 2.66 2 3 C1 4 1 4 -1.50390625 4.09765625 C-3.01791016 4.08025391 -3.01791016 4.08025391 -4.5625 4.0625 C-5.57441406 4.05347656 -6.58632812 4.04445312 -7.62890625 4.03515625 C-8.41136719 4.02355469 -9.19382813 4.01195312 -10 4 C-9.67 3.34 -9.34 2.68 -9 2 C-2.88888889 0 -2.88888889 0 0 0 Z " fill="#78A6CC" transform="translate(192,201)"/>
<path d="M0 0 C0 0.99 0 1.98 0 3 C-4.8333472 3.08333357 -9.23692563 2.95261487 -14 2 C-14 1.67 -14 1.34 -14 1 C-4.58997722 -0.14806378 -4.58997722 -0.14806378 0 0 Z " fill="#3A97E3" transform="translate(174,213)"/>
<path d="M0 0 C2.31 0.33 4.62 0.66 7 1 C7 2.32 7 3.64 7 5 C4.69 4.67 2.38 4.34 0 4 C0 2.68 0 1.36 0 0 Z " fill="#5399E2" transform="translate(194,220)"/>
<path d="M0 0 C-2.27170721 3.40756081 -3.17383143 3.8695411 -7 5 C-10.3125 5.125 -10.3125 5.125 -13 5 C-12.4225 4.731875 -11.845 4.46375 -11.25 4.1875 C-8.95215329 3.07576415 -8.95215329 3.07576415 -7.0625 1.375 C-4.53440331 -0.31039779 -2.97832406 -0.24819367 0 0 Z " fill="#E2B267" transform="translate(194,195)"/>
<path d="M0 0 C0.66 0.33 1.32 0.66 2 1 C2.40729228 3.32156597 2.74438677 5.6568787 3 8 C2.34 8 1.68 8 1 8 C0.67 9.32 0.34 10.64 0 12 C-0.92844389 7.66726186 -0.92844389 4.33273814 0 0 Z " fill="#7CA9D5" transform="translate(221,174)"/>
<path d="M0 0 C1.65 0 3.3 0 5 0 C5.33 0.99 5.66 1.98 6 3 C8.49759982 4.69882448 8.49759982 4.69882448 11 6 C8 7 8 7 4.8125 5.5625 C3.884375 5.046875 2.95625 4.53125 2 4 C2 3.34 2 2.68 2 2 C1.34 1.34 0.68 0.68 0 0 Z " fill="#498ACC" transform="translate(116,211)"/>
<path d="M0 0 C0.66 2.97 1.32 5.94 2 9 C0.68 8.67 -0.64 8.34 -2 8 C-2.2165625 6.824375 -2.2165625 6.824375 -2.4375 5.625 C-2.87798925 3.03578982 -2.87798925 3.03578982 -4 1 C-2 0 -2 0 0 0 Z " fill="#EAA547" transform="translate(184,176)"/>
<path d="M0 0 C0.66 0.33 1.32 0.66 2 1 C-0.97 3.97 -3.94 6.94 -7 10 C-8.43088528 7.13822943 -7.59991697 5.06624227 -7 2 C-6.67 2.99 -6.34 3.98 -6 5 C-4.02 3.35 -2.04 1.7 0 0 Z " fill="#4894E8" transform="translate(123,157)"/>
<path d="M0 0 C0 0.66 0 1.32 0 2 C-3.47325181 3.1577506 -6.36067448 3.06866652 -10 3 C-10 2.34 -10 1.68 -10 1 C-6.52674819 -0.1577506 -3.63932552 -0.06866652 0 0 Z " fill="#3B9AE3" transform="translate(185,211)"/>
<path d="M0 0 C0.66 0 1.32 0 2 0 C1.67 2.97 1.34 5.94 1 9 C-0.65 9.33 -2.3 9.66 -4 10 C-3.525625 9.46375 -3.05125 8.9275 -2.5625 8.375 C-0.71813924 5.57157164 -0.37543153 3.30379742 0 0 Z " fill="#2E8EE6" transform="translate(215,193)"/>
<path d="M0 0 C2 4 4 8 6 12 C4.02 12 2.04 12 0 12 C0 11.34 0 10.68 0 10 C0.66 10 1.32 10 2 10 C1.505 8.9171875 1.505 8.9171875 1 7.8125 C-0.00603529 4.98302573 -0.16977402 2.97104534 0 0 Z " fill="#DF8841" transform="translate(154,185)"/>
<path d="M0 0 C0.6875 1.75 0.6875 1.75 1 4 C-0.3125 6.25 -0.3125 6.25 -2 8 C-2.66 8 -3.32 8 -4 8 C-3.50168276 4.31245243 -2.89932357 2.39509338 0 0 Z " fill="#3274C1" transform="translate(115,161)"/>
<path d="M0 0 C0.33 0 0.66 0 1 0 C1.44041451 5.28497409 1.44041451 5.28497409 1 8 C-1.5 10.5 -1.5 10.5 -4 12 C-2.66666667 8 -1.33333333 4 0 0 Z " fill="#5098D6" transform="translate(214,191)"/>
<path d="M0 0 C0.66 0.33 1.32 0.66 2 1 C1.42415568 3.38564077 0.77772405 5.66682784 0 8 C-0.66 8 -1.32 8 -2 8 C-2.33 8.99 -2.66 9.98 -3 11 C-3 9.68 -3 8.36 -3 7 C-2.34 7 -1.68 7 -1 7 C-1.33 5.02 -1.66 3.04 -2 1 C-1.34 0.67 -0.68 0.34 0 0 Z " fill="#EDBA80" transform="translate(172,185)"/>
<path d="M0 0 C0.33 0.66 0.66 1.32 1 2 C2.32 1.34 3.64 0.68 5 0 C4.39816251 2.02045442 3.72693904 4.02111039 3 6 C2.01 6.495 2.01 6.495 1 7 C1 6.01 1 5.02 1 4 C0.01 4.33 -0.98 4.66 -2 5 C-1.34 3.35 -0.68 1.7 0 0 Z " fill="#5998DF" transform="translate(110,167)"/>
<path d="M0 0 C0.99 0 1.98 0 3 0 C3 0.66 3 1.32 3 2 C3.99 1.67 4.98 1.34 6 1 C6.33 2.65 6.66 4.3 7 6 C6.01 6 5.02 6 4 6 C3.71125 5.195625 3.4225 4.39125 3.125 3.5625 C2.26737432 0.8673532 2.26737432 0.8673532 0 0 Z " fill="#79B3DC" transform="translate(205,166)"/>
<path d="M0 0 C6.75 0.875 6.75 0.875 9 2 C9 2.66 9 3.32 9 4 C6.1875 4.25 6.1875 4.25 3 4 C1.125 2 1.125 2 0 0 Z " fill="#4087C8" transform="translate(141,223)"/>
<path d="M0 0 C1.98 0 3.96 0 6 0 C6 1.32 6 2.64 6 4 C3.03 3.505 3.03 3.505 0 3 C0 2.01 0 1.02 0 0 Z " fill="#3492E3" transform="translate(122,212)"/>
<path d="M0 0 C3.68754757 0.49831724 5.60490662 1.10067643 8 4 C7.01 5.485 7.01 5.485 6 7 C4 5 4 5 3 3 C2.01 2.67 1.02 2.34 0 2 C0 1.34 0 0.68 0 0 Z " fill="#419FEC" transform="translate(191,150)"/>
<path d="M0 0 C1.98 0 3.96 0 6 0 C4 3 4 3 1.5 3.8125 C0.2625 3.9053125 0.2625 3.9053125 -1 4 C-1.66 3.34 -2.32 2.68 -3 2 C-2.01 2 -1.02 2 0 2 C0 1.34 0 0.68 0 0 Z " fill="#51A2E6" transform="translate(185,211)"/>
<path d="M0 0 C0.33 1.98 0.66 3.96 1 6 C0.01 6.33 -0.98 6.66 -2 7 C-2 5.68 -2 4.36 -2 3 C-2.99 3.33 -3.98 3.66 -5 4 C-4.67 3.01 -4.34 2.02 -4 1 C-2 0 -2 0 0 0 Z " fill="#4B99E6" transform="translate(131,153)"/>
<path d="M0 0 C0.99 0 1.98 0 3 0 C3 0.99 3 1.98 3 3 C3.66 3 4.32 3 5 3 C5 3.66 5 4.32 5 5 C2.69 4.67 0.38 4.34 -2 4 C-1.34 3.67 -0.68 3.34 0 3 C0 2.01 0 1.02 0 0 Z " fill="#6AA9E4" transform="translate(179,148)"/>
<path d="M0 0 C-1.125 1.5 -1.125 1.5 -3 3 C-6.1875 3.1875 -6.1875 3.1875 -9 3 C-6.38997624 -0.48003168 -4.1689578 -0.27793052 0 0 Z " fill="#368CDB" transform="translate(166,222)"/>
<path d="M0 0 C0.66 0 1.32 0 2 0 C1.67 1.98 1.34 3.96 1 6 C-0.32 5.67 -1.64 5.34 -3 5 C-1.625 2.5 -1.625 2.5 0 0 Z " fill="#347CC7" transform="translate(109,171)"/>
<path d="M0 0 C0.66 0 1.32 0 2 0 C2 1.32 2 2.64 2 4 C1.34 4 0.68 4 0 4 C-0.66 5.65 -1.32 7.3 -2 9 C-3.04449911 5.86650268 -2.93423645 5.01031744 -2 2 C-1.34 2 -0.68 2 0 2 C0 1.34 0 0.68 0 0 Z " fill="#599BD9" transform="translate(119,165)"/>
<path d="M0 0 C-0.33 0.66 -0.66 1.32 -1 2 C-4.3 1.67 -7.6 1.34 -11 1 C-11 0.67 -11 0.34 -11 0 C-3.375 -1.125 -3.375 -1.125 0 0 Z " fill="#2373CC" transform="translate(183,145)"/>
<path d="M0 0 C0.33 0 0.66 0 1 0 C0.88637738 1.4800841 0.75877092 2.95910074 0.625 4.4375 C0.52058594 5.67306641 0.52058594 5.67306641 0.4140625 6.93359375 C0.27742187 7.61550781 0.14078125 8.29742187 0 9 C-0.99 9.495 -0.99 9.495 -2 10 C-2.17942163 6.05272412 -2.09350689 3.4019487 0 0 Z " fill="#87B1DB" transform="translate(220,198)"/>
<path d="M0 0 C0.99 0.495 0.99 0.495 2 1 C2 1.66 2 2.32 2 3 C2.66 3 3.32 3 4 3 C4 3.66 4 4.32 4 5 C4.66 5 5.32 5 6 5 C5.67 6.32 5.34 7.64 5 9 C0.57142857 3.85714286 0.57142857 3.85714286 0 0 Z " fill="#3185D4" transform="translate(212,164)"/>
<path d="M0 0 C2.0625 0.4375 2.0625 0.4375 4 1 C3.67 2.65 3.34 4.3 3 6 C2.01 5.67 1.02 5.34 0 5 C-0.75 3 -0.75 3 -1 1 C-0.67 0.67 -0.34 0.34 0 0 Z " fill="#3086D9" transform="translate(125,155)"/>
<path d="M0 0 C0.66 1.32 1.32 2.64 2 4 C1 5 1 5 -1.5625 5.0625 C-2.7690625 5.0315625 -2.7690625 5.0315625 -4 5 C-1.125 1.125 -1.125 1.125 0 0 Z " fill="#B2BCD2" transform="translate(219,226)"/>
<path d="M0 0 C1.89213369 2.38573379 3.02391783 4.07175348 4 7 C2.68 7 1.36 7 0 7 C-0.93423645 3.98968256 -1.04449911 3.13349732 0 0 Z " fill="#EDA456" transform="translate(155,178)"/>
</svg>
